<svg xmlns="http://www.w3.org/2000/svg" fill="none" viewBox="0 0 128 128">
  <path
    d="M75.0505 51.7083C73.6725 51.7083 72.5527 50.5922 72.5527 49.2156C72.5527 37.5177 82.0225 28.0338 93.7525 28.0338C95.1304 28.0338 96.2502 29.1498 96.2502 30.5264V30.5292C96.2504 42.225 86.7783 51.7083 75.0505 51.7083Z"
    fill="#14AA6B"
  />
  <path
    fill-rule="evenodd"
    clip-rule="evenodd"
    d="M80.5638 85.3364C80.5638 83.5696 79.128 82.1352 77.3595 82.1352H51.7242C49.9557 82.1352 48.5199 83.5696 48.5199 85.3364V115.001C48.5199 116.768 49.9557 118.203 51.7242 118.203H77.3595C79.128 118.203 80.5638 116.768 80.5638 115.001V85.3364Z"
    fill="#4EC95F"
  />
  <path
    fill-rule="evenodd"
    clip-rule="evenodd"
    d="M80.5638 49.2689C80.5638 47.502 79.128 46.0676 77.3595 46.0676H51.7242C49.9557 46.0676 48.5199 47.502 48.5199 49.2689V78.9339C48.5199 80.7008 49.9557 82.1351 51.7242 82.1351H77.3595C79.128 82.1351 80.5638 80.7008 80.5638 78.9339V49.2689Z"
    fill="#87E752"
  />
  <path
    fill-rule="evenodd"
    clip-rule="evenodd"
    d="M80.5638 13.2012C80.5638 11.4344 79.128 10 77.3595 10H51.7242C49.9557 10 48.5199 11.4344 48.5199 13.2012V42.8663C48.5199 44.6331 49.9557 46.0675 51.7242 46.0675H77.3595C79.128 46.0675 80.5638 44.6331 80.5638 42.8663V13.2012Z"
    fill="#C8FF50"
  />
  <path
    fill-rule="evenodd"
    clip-rule="evenodd"
    d="M80.5638 85.3364C80.5638 83.5696 79.128 82.1352 77.3594 82.1352H64.5419V118.203H77.3594C79.128 118.203 80.5638 116.768 80.5638 115.001V85.3364Z"
    fill="#14AA6B"
  />
  <path
    fill-rule="evenodd"
    clip-rule="evenodd"
    d="M80.5638 49.2689C80.5638 47.502 79.128 46.0676 77.3594 46.0676H64.5419V82.1351H77.3594C79.128 82.1351 80.5638 80.7008 80.5638 78.9339V49.2689Z"
    fill="#4EC95F"
  />
  <path
    fill-rule="evenodd"
    clip-rule="evenodd"
    d="M80.5638 13.2012C80.5638 11.4344 79.128 10 77.3594 10H64.5419V46.0675H77.3594C79.128 46.0675 80.5638 44.6331 80.5638 42.8663V13.2012Z"
    fill="#87E752"
  />
  <path
    d="M33.9584 61.2648C32.6007 61.2648 31.5 62.3644 31.5 63.7207C31.5 73.3578 37.6038 79.4925 42.536 82.1349C37.6118 84.7731 31.5 90.9148 31.5 100.549C31.5 101.905 32.6007 103.005 33.9584 103.005C45.4774 103.005 54.8488 93.6427 54.8488 82.1349C54.8488 70.6272 45.4775 61.2648 33.9584 61.2648Z"
    fill="#4EC95F"
  />
  <path
    d="M31.5 100.549C31.5 101.905 32.6007 103.005 33.9584 103.005C45.4774 103.005 54.8488 93.6425 54.8488 82.1348H42.536C37.6118 84.7729 31.5 90.9148 31.5 100.549Z"
    fill="#87E752"
  />
</svg>
